<?xml version="1.0" standalone="no"?>
<!DOCTYPE svg PUBLIC "-//W3C//DTD SVG 20010904//EN"
 "http://www.w3.org/TR/2001/REC-SVG-20010904/DTD/svg10.dtd">
<svg version="1.0" xmlns="http://www.w3.org/2000/svg"
 width="1080.000000pt" height="1080.000000pt" viewBox="0 0 1080.000000 1080.000000"
 preserveAspectRatio="xMidYMid meet">

<g transform="translate(0.000000,1080.000000) scale(0.100000,-0.100000)"
fill="#000000" stroke="none">
<path d="M2698 10793 c1486 -2 3918 -2 5405 0 1486 1 270 2 -2703 2 -2973 0
-4189 -1 -2702 -2z"/>
<path d="M3044 7591 c-31 -18 -91 -73 -145 -133 -250 -275 -492 -439 -1056
-715 -225 -110 -274 -138 -279 -158 -9 -37 4 -62 43 -80 31 -15 54 -17 162
-11 666 36 1262 161 1745 366 211 89 277 156 263 262 -18 132 -274 363 -506
456 -119 49 -162 51 -227 13z"/>
<path d="M7497 7595 c-75 -26 -74 -19 -42 -320 20 -192 45 -516 45 -580 l0
-52 -192 -38 c-159 -32 -218 -39 -336 -42 -156 -3 -201 -11 -253 -46 -119 -80
-136 -212 -119 -902 7 -253 11 -485 9 -515 l-4 -55 -195 -42 c-275 -59 -411
-81 -549 -89 -100 -6 -124 -10 -138 -26 -16 -17 -15 -22 7 -76 38 -93 157
-324 193 -372 38 -51 97 -95 154 -116 77 -27 137 -18 349 50 l199 64 6 -137
c4 -75 7 -206 8 -291 2 -230 28 -312 128 -400 70 -62 118 -84 183 -84 98 0
201 77 239 178 42 114 46 162 44 564 l-3 383 28 10 c65 25 272 80 389 103 244
48 380 63 647 72 l189 7 -6 -324 c-8 -420 -24 -510 -98 -530 -13 -4 -95 -7
-181 -8 l-158 -1 -6 -24 c-3 -14 -3 -34 1 -46 8 -24 388 -436 438 -474 143
-109 318 -89 449 53 62 67 125 182 163 296 35 109 44 246 45 664 l0 343 48 -7
c99 -14 252 -47 377 -82 199 -55 270 -48 313 31 26 49 21 206 -12 330 -32 123
-55 172 -112 235 -89 99 -197 127 -448 118 l-159 -6 6 327 c4 236 11 375 26
501 26 215 23 230 -64 316 -68 68 -195 139 -360 200 -117 44 -198 49 -330 21
-44 -9 -128 -22 -187 -29 -106 -13 -108 -13 -108 7 0 12 7 111 15 221 21 288
20 349 -9 410 -61 133 -262 225 -485 225 -63 -1 -121 -6 -144 -15z m891 -1246
c53 -18 60 -54 72 -366 5 -153 10 -356 10 -450 0 -171 0 -173 -22 -177 -36 -8
-327 -46 -349 -46 -19 0 -19 6 -17 116 l3 117 94 38 c52 20 113 50 135 66 111
78 125 205 33 297 -45 44 -90 62 -190 76 -33 5 -61 11 -63 13 -3 2 -1 74 2
160 l7 156 71 4 c155 7 184 7 214 -4z m-865 -201 c11 -182 9 -258 -6 -258 -17
0 -172 -75 -209 -101 -44 -32 -62 -73 -48 -114 20 -59 129 -146 228 -181 l52
-19 0 -127 0 -126 -27 -6 c-102 -21 -277 -46 -282 -41 -3 4 -7 231 -9 505 l-3
498 78 26 c90 29 181 54 204 55 13 1 17 -17 22 -111z"/>
<path d="M2775 6547 c-16 -8 -41 -27 -55 -42 -31 -33 -33 -89 -7 -285 9 -74
20 -214 24 -310 l6 -176 -287 -83 c-164 -47 -300 -81 -318 -79 -49 5 -55 24
-35 125 62 310 69 391 38 451 -70 136 -369 265 -480 207 -45 -23 -61 -72 -81
-249 -42 -358 -65 -468 -145 -716 -64 -197 -65 -224 -16 -302 34 -53 138 -131
214 -160 34 -14 76 -21 122 -21 73 0 78 1 400 118 130 47 564 175 593 175 13
0 14 -41 9 -352 -7 -383 -27 -659 -53 -713 -9 -19 -30 -40 -49 -50 -32 -15
-42 -14 -157 6 -190 34 -193 34 -217 10 -40 -40 -20 -121 57 -225 49 -68 230
-275 313 -358 152 -152 298 -210 439 -174 162 42 262 168 304 382 32 164 39
316 45 979 l6 670 75 17 c137 32 322 48 615 55 330 7 335 8 367 80 28 63 20
133 -23 213 -64 120 -257 281 -378 317 -83 24 -158 12 -411 -66 l-225 -69 -6
147 c-13 309 -59 363 -384 452 -131 35 -256 46 -300 26z"/>
<path d="M3780 4887 c-83 -29 -75 -103 23 -218 138 -162 219 -286 317 -491 73
-152 131 -198 245 -198 124 1 269 160 305 337 19 91 9 227 -22 294 -61 133
-241 233 -492 274 -108 18 -327 19 -376 2z"/>
<path d="M1480 4701 c-51 -50 -84 -225 -97 -502 -8 -192 2 -234 71 -305 129
-132 322 -109 491 61 137 136 252 420 201 491 -13 17 -27 19 -128 19 -105 0
-116 2 -158 27 -25 15 -89 67 -142 117 -140 130 -184 147 -238 92z"/>
</g>
</svg>
